<?xml version="1.0" encoding="utf-8"?>
<!-- Generator: Adobe Illustrator 24.0.1, SVG Export Plug-In . SVG Version: 6.00 Build 0)  -->
<svg version="1.1" id="Layer_1" xmlns="http://www.w3.org/2000/svg" xmlns:xlink="http://www.w3.org/1999/xlink" x="0px" y="0px"
	 viewBox="0 0 672.35 113.33" style="enable-background:new 0 0 672.35 113.33;" xml:space="preserve">
<style type="text/css">
	.st0{fill:#FFA618;}
	.st1{fill:#F94C43;}
	.st2{fill:url(#SVGID_1_);}
	.st3{fill:#FFFFFF;}
	.st4{opacity:0.9;}
	.st5{fill:#EAA9A9;}
	.st6{fill:url(#SVGID_8_);}
	.st7{fill:none;stroke:#FFFFFF;stroke-miterlimit:10;}
	.st8{fill:#F4D4D4;}
	.st9{fill:none;stroke:#FFF5F5;stroke-width:3;stroke-linecap:round;stroke-miterlimit:10;}
	.st10{fill:#EE3131;}
	.st11{fill:url(#SVGID_31_);}
	.st12{fill:#4FD391;}
	.st13{fill:url(#SVGID_32_);}
	.st14{fill:#FF6A5F;}
	.st15{fill:#BE0C1C;}
	.st16{fill:#DBE8FC;}
	.st17{display:none;}
	.st18{display:inline;fill:#DBE8FC;}
	.st19{fill:none;stroke:#FFFFFF;stroke-width:0.25;stroke-miterlimit:10;}
	.st20{fill:url(#SVGID_35_);}
	.st21{fill:url(#SVGID_40_);}
	.st22{opacity:0.5;}
	.st23{fill:url(#SVGID_45_);}
	.st24{clip-path:url(#SVGID_55_);fill:none;stroke:#FFFFFF;stroke-width:6;stroke-miterlimit:10;}
	.st25{fill:url(#SVGID_74_);}
	.st26{clip-path:url(#SVGID_76_);fill:none;stroke:#FFFFFF;stroke-width:6;stroke-miterlimit:10;}
	.st27{opacity:0.6;}
	.st28{clip-path:url(#SVGID_78_);}
	.st29{display:inline;opacity:0.9;}
	.st30{display:inline;}
	.st31{fill:#D31218;}
	.st32{fill:url(#SVGID_89_);}
	.st33{clip-path:url(#SVGID_91_);fill:none;stroke:#FFFFFF;stroke-width:6;stroke-miterlimit:10;}
	.st34{opacity:0.3;fill:#FFFFFF;}
	.st35{opacity:0.6;fill:#FFFFFF;}
	.st36{fill:none;stroke:#FFFFFF;stroke-width:2;stroke-linecap:round;stroke-miterlimit:10;}
	.st37{opacity:0.1;}
	.st38{opacity:0.3;}
	.st39{fill:#FAFAFA;}
	.st40{display:none;fill:url(#SVGID_108_);}
	.st41{display:inline;fill:#4FD391;}
	.st42{fill:url(#SVGID_109_);}
	.st43{fill:url(#SVGID_110_);}
	.st44{display:none;fill:#4FD391;}
	.st45{fill:url(#SVGID_111_);}
	.st46{fill:url(#SVGID_112_);}
	.st47{display:none;fill:url(#SVGID_113_);}
	.st48{fill:url(#SVGID_114_);}
	.st49{fill:url(#SVGID_115_);}
	.st50{fill:url(#SVGID_116_);}
	.st51{fill:url(#SVGID_117_);}
	.st52{display:none;fill:url(#SVGID_118_);}
	.st53{opacity:0.6;fill:url(#SVGID_119_);}
	.st54{opacity:0.6;fill:url(#SVGID_120_);}
	.st55{opacity:0.6;fill:url(#SVGID_121_);}
	.st56{opacity:0.6;fill:url(#SVGID_122_);}
	.st57{opacity:0.6;fill:url(#SVGID_123_);}
	.st58{opacity:0.6;fill:url(#SVGID_124_);}
	.st59{opacity:0.6;fill:url(#SVGID_125_);}
	.st60{fill:url(#SVGID_126_);}
	.st61{display:none;fill:url(#SVGID_127_);}
	.st62{display:none;fill:url(#SVGID_128_);}
	.st63{fill:url(#SVGID_129_);}
	.st64{fill:#FFA1DE;}
	.st65{fill:url(#SVGID_130_);}
	.st66{fill:url(#SVGID_131_);}
	.st67{fill:url(#SVGID_132_);}
	.st68{fill:url(#SVGID_133_);}
	.st69{fill:url(#SVGID_134_);}
	.st70{fill:url(#SVGID_135_);}
	.st71{fill:url(#SVGID_136_);}
	.st72{fill:url(#SVGID_137_);}
	.st73{clip-path:url(#SVGID_147_);}
	.st74{fill:url(#SVGID_150_);}
	.st75{fill:url(#SVGID_151_);}
	.st76{clip-path:url(#SVGID_155_);}
	.st77{fill:url(#SVGID_156_);}
	.st78{fill:url(#SVGID_157_);}
	.st79{fill:url(#SVGID_160_);}
	.st80{fill:url(#SVGID_161_);}
	.st81{display:none;fill:url(#SVGID_162_);}
	.st82{fill:url(#SVGID_163_);}
	.st83{fill:url(#SVGID_164_);}
	.st84{fill:url(#SVGID_165_);}
	.st85{display:none;fill:url(#SVGID_166_);}
	.st86{fill:url(#SVGID_167_);}
	.st87{fill:url(#SVGID_168_);}
	.st88{fill:url(#SVGID_169_);}
	.st89{fill:#9E0421;}
	.st90{fill:#EE632C;}
	.st91{fill:url(#SVGID_170_);}
	.st92{fill:#F2C889;}
	.st93{fill:#0C6657;}
	.st94{fill:url(#SVGID_171_);}
	.st95{fill:url(#SVGID_172_);}
	.st96{display:none;fill:url(#SVGID_173_);}
	.st97{fill:url(#SVGID_174_);}
	.st98{fill:url(#SVGID_175_);}
	.st99{fill:url(#SVGID_176_);}
	.st100{fill:url(#SVGID_177_);}
	.st101{fill:url(#SVGID_178_);}
	.st102{fill:url(#SVGID_179_);}
	.st103{fill:url(#SVGID_180_);}
	.st104{fill:url(#SVGID_181_);}
	.st105{fill:url(#SVGID_182_);}
	.st106{fill:url(#SVGID_183_);}
	.st107{fill:url(#SVGID_184_);}
	.st108{fill:url(#SVGID_185_);}
	.st109{fill:url(#SVGID_186_);}
	.st110{fill:url(#SVGID_187_);}
	.st111{fill:url(#SVGID_188_);}
	.st112{fill:url(#SVGID_189_);}
	.st113{fill:url(#SVGID_190_);}
	.st114{fill:url(#SVGID_191_);}
	.st115{fill:url(#SVGID_192_);}
	.st116{fill:url(#SVGID_193_);}
	.st117{fill:url(#SVGID_194_);}
	.st118{fill:url(#SVGID_195_);}
	.st119{fill:url(#SVGID_196_);}
	.st120{fill:url(#SVGID_197_);}
	.st121{fill:url(#SVGID_198_);}
	.st122{fill:url(#SVGID_199_);}
	.st123{fill:url(#SVGID_200_);}
	.st124{fill:url(#SVGID_201_);}
	.st125{fill:url(#SVGID_202_);}
	.st126{fill:url(#SVGID_203_);}
	.st127{fill:url(#SVGID_204_);}
	.st128{fill:url(#SVGID_205_);}
	.st129{fill:url(#SVGID_206_);}
	.st130{fill:url(#SVGID_207_);}
	.st131{fill:url(#SVGID_208_);}
	.st132{fill:url(#SVGID_209_);}
	.st133{fill:url(#SVGID_210_);}
	.st134{fill:url(#SVGID_211_);}
	.st135{fill:url(#SVGID_212_);}
	.st136{fill:url(#SVGID_213_);}
	.st137{fill:url(#SVGID_214_);}
	.st138{fill:url(#SVGID_215_);}
	.st139{fill:url(#SVGID_216_);}
	.st140{display:none;fill:url(#SVGID_217_);}
	.st141{fill:url(#SVGID_218_);}
	.st142{fill:url(#SVGID_219_);}
	.st143{fill:url(#SVGID_220_);}
	.st144{display:none;fill:url(#SVGID_221_);}
	.st145{fill:url(#SVGID_222_);}
	.st146{fill:url(#SVGID_223_);}
	.st147{fill:url(#SVGID_224_);}
	.st148{fill:url(#SVGID_225_);}
	.st149{fill:url(#SVGID_226_);}
	.st150{fill:url(#SVGID_227_);}
	.st151{fill:url(#SVGID_228_);}
	.st152{fill:url(#SVGID_229_);}
	.st153{fill:url(#SVGID_230_);}
	.st154{fill:url(#SVGID_231_);}
	.st155{fill:url(#SVGID_232_);}
	.st156{fill:url(#SVGID_233_);}
	.st157{fill:url(#SVGID_234_);}
	.st158{fill:url(#SVGID_235_);}
	.st159{fill:url(#SVGID_236_);}
	.st160{fill:url(#SVGID_237_);}
	.st161{fill:url(#SVGID_238_);}
	.st162{fill:url(#SVGID_239_);}
	.st163{fill:url(#SVGID_240_);}
	.st164{fill:url(#SVGID_241_);}
	.st165{fill:url(#SVGID_242_);}
	.st166{display:none;fill:url(#SVGID_243_);}
	.st167{fill:url(#SVGID_244_);}
	.st168{fill:url(#SVGID_245_);}
	.st169{fill:url(#SVGID_246_);}
	.st170{display:none;fill:url(#SVGID_247_);}
	.st171{fill:url(#SVGID_250_);}
	.st172{display:none;fill:url(#SVGID_251_);}
	.st173{fill:url(#SVGID_252_);}
	.st174{fill:url(#SVGID_253_);}
	.st175{fill:url(#SVGID_254_);}
	.st176{fill:url(#SVGID_255_);}
	.st177{fill:url(#SVGID_256_);}
	.st178{fill:url(#SVGID_257_);}
	.st179{fill:url(#SVGID_258_);}
	.st180{fill:url(#SVGID_259_);}
	.st181{fill:url(#SVGID_260_);}
	.st182{fill:url(#SVGID_261_);}
	.st183{fill:url(#SVGID_262_);}
	.st184{fill:url(#SVGID_263_);}
	.st185{fill:url(#SVGID_264_);}
	.st186{fill:url(#SVGID_265_);}
	.st187{fill:url(#SVGID_266_);}
	.st188{fill:url(#SVGID_267_);}
	.st189{fill:url(#SVGID_268_);}
	.st190{fill:url(#SVGID_269_);}
	.st191{fill:url(#SVGID_270_);}
	.st192{fill:url(#SVGID_271_);}
	.st193{fill:url(#SVGID_272_);}
	.st194{fill:url(#SVGID_273_);}
	.st195{fill:url(#SVGID_276_);}
	.st196{fill:url(#SVGID_277_);}
	.st197{fill:url(#SVGID_278_);}
	.st198{fill:url(#SVGID_279_);}
</style>
<g>
	<g>
		<g class="st17">
			<path class="st41" d="M245.02,93.45c0,2.45,1.98,4.43,4.43,4.43c2.45,0,4.43-1.98,4.43-4.43V82.37c0-2.45-1.98-4.43-4.43-4.43
				c-2.45,0-4.43,1.98-4.43,4.43V93.45z"/>
		</g>
		<path class="st44" d="M222.83,115.65c0,2.45,1.98,4.43,4.43,4.43c2.45,0,4.43-1.98,4.43-4.43V93.46c0-2.45-1.98-4.43-4.43-4.43
			c-2.45,0-4.43,1.98-4.43,4.43V115.65z"/>
	</g>
</g>
<g>
	<g>
		
			<linearGradient id="SVGID_1_" gradientUnits="userSpaceOnUse" x1="469.3337" y1="-332.8088" x2="751.1563" y2="-332.8088" gradientTransform="matrix(1 0 0 1 -262.7555 352.5741)">
			<stop  offset="0" style="stop-color:#EF3C32"/>
			<stop  offset="0.1183" style="stop-color:#F04532"/>
			<stop  offset="0.3074" style="stop-color:#F35C30"/>
			<stop  offset="0.4865" style="stop-color:#F6782F"/>
			<stop  offset="0.7946" style="stop-color:#FA9A2B"/>
			<stop  offset="1" style="stop-color:#FFA618"/>
		</linearGradient>
		<rect x="206.58" y="11.86" class="st2" width="281.82" height="15.81"/>
		
			<linearGradient id="SVGID_3_" gradientUnits="userSpaceOnUse" x1="469.3337" y1="-304.3742" x2="751.1563" y2="-304.3742" gradientTransform="matrix(1 0 0 1 -262.7555 352.5741)">
			<stop  offset="0" style="stop-color:#D31218"/>
			<stop  offset="0.1028" style="stop-color:#D71C21"/>
			<stop  offset="0.2754" style="stop-color:#E13639"/>
			<stop  offset="0.4622" style="stop-color:#EF5959"/>
			<stop  offset="0.6619" style="stop-color:#ED7474"/>
			<stop  offset="1" style="stop-color:#EAA9A9"/>
		</linearGradient>
		<rect x="206.58" y="40.29" style="fill:url(#SVGID_3_);" width="281.82" height="15.81"/>
		
			<linearGradient id="SVGID_5_" gradientUnits="userSpaceOnUse" x1="469.3337" y1="-275.9395" x2="751.1563" y2="-275.9395" gradientTransform="matrix(1 0 0 1 -262.7555 352.5741)">
			<stop  offset="0" style="stop-color:#4FD391"/>
			<stop  offset="0.0998" style="stop-color:#58D48B"/>
			<stop  offset="0.2598" style="stop-color:#6FD67A"/>
			<stop  offset="0.459" style="stop-color:#95DA5F"/>
			<stop  offset="0.4919" style="stop-color:#9CDB5A"/>
			<stop  offset="1" style="stop-color:#FFD91D"/>
		</linearGradient>
		<rect x="206.58" y="68.73" style="fill:url(#SVGID_5_);" width="281.82" height="15.81"/>
	</g>
	<rect x="72.67" y="11.86" class="st5" width="72.63" height="8.56"/>
	<g>
		<g>
			<circle class="st93" cx="146.14" cy="100.11" r="13.21"/>
		</g>
		<rect x="145.35" y="11.86" class="st1" width="39.63" height="72.67"/>
		<rect x="72.67" y="11.86" class="st10" width="72.67" height="72.67"/>
		<rect y="11.86" class="st89" width="39.64" height="72.67"/>
		<g>
			<path class="st3" d="M100.09,29.78l13.77,31.08h-3.49l-4.35-9.69H91.98l-4.17,9.69h-3.49l13.36-31.08H100.09z M93.3,48.12h11.37
				l-5.84-13.14L93.3,48.12z"/>
			<path class="st3" d="M129.99,46.49v11.23c0,0.63,0.18,0.91,0.63,0.91c0.41,0,1.22-0.45,2.4-1.36v2.31
				c-1.59,1.13-2.81,1.68-4.03,1.68c-1.72,0-2.08-1.18-2.08-1.95v-0.54c-2.31,1.95-3.94,2.49-5.93,2.49c-3.08,0-5.16-2.22-5.16-4.98
				c0-3.99,3.44-5.84,11.1-7.61v-1.59c0-2.85-1.18-4.08-4.03-4.08c-2.49,0-4.44,1.09-6.43,3.13v-3.35c1.72-1.81,3.99-2.67,6.7-2.67
				C127.64,40.11,129.99,42.55,129.99,46.49z M122.38,59c1.45,0,2.81-0.54,4.53-2.22v-6.34c-4.98,0.95-7.97,2.58-7.97,5.35
				C118.94,57.59,120.34,59,122.38,59z"/>
		</g>
		<g>
			<path class="st89" d="M171.55,47.23v10.93c0,0.62,0.18,0.88,0.64,0.88c0.41,0,1.24-0.44,2.43-1.32v2.25
				c-1.61,1.1-2.85,1.63-4.08,1.63c-1.74,0-2.11-1.15-2.11-1.9v-0.53c-2.34,1.9-3.99,2.42-6.01,2.42c-3.12,0-5.23-2.16-5.23-4.85
				c0-3.88,3.49-5.69,11.24-7.41V47.8c0-2.78-1.19-3.97-4.08-3.97c-2.52,0-4.5,1.06-6.52,3.04v-3.26c1.74-1.76,4.04-2.6,6.79-2.6
				C169.17,41.01,171.55,43.39,171.55,47.23z M163.84,59.39c1.47,0,2.85-0.53,4.59-2.16v-6.17c-5.05,0.93-8.08,2.51-8.08,5.2
				C160.35,58.03,161.78,59.39,163.84,59.39z"/>
		</g>
		<rect x="33.04" y="11.86" class="st31" width="39.63" height="72.67"/>
		<rect x="145.35" y="68.49" class="st89" width="39.63" height="16.05"/>
		<g>
			<circle class="st12" cx="146.14" cy="85.16" r="13.21"/>
			<g>
				<path class="st3" d="M151.04,83.1v5.98c0,0.48,0.16,0.72,0.49,0.72c0.34,0,0.86-0.25,1.57-0.75v1.7
					c-0.63,0.41-1.14,0.69-1.52,0.83c-0.38,0.15-0.78,0.22-1.2,0.22c-1.19,0-1.9-0.47-2.11-1.41c-1.18,0.92-2.44,1.37-3.77,1.37
					c-0.98,0-1.79-0.32-2.44-0.97c-0.65-0.65-0.98-1.46-0.98-2.44c0-0.89,0.32-1.68,0.95-2.38c0.64-0.7,1.54-1.25,2.71-1.66
					l3.56-1.22v-0.75c0-1.69-0.85-2.54-2.54-2.54c-1.52,0-3,0.78-4.43,2.35v-3.04c1.08-1.27,2.63-1.91,4.66-1.91
					c1.52,0,2.74,0.4,3.65,1.19c0.31,0.25,0.58,0.59,0.83,1.02s0.4,0.85,0.47,1.27C151.01,81.12,151.04,81.92,151.04,83.1z
					 M148.3,88.77V84.6l-1.86,0.72c-0.95,0.38-1.62,0.76-2.01,1.14c-0.39,0.38-0.59,0.86-0.59,1.43c0,0.58,0.19,1.05,0.56,1.42
					c0.37,0.37,0.85,0.55,1.44,0.55C146.73,89.85,147.55,89.49,148.3,88.77z"/>
			</g>
		</g>
		<rect x="17.48" y="11.65" class="st15" width="16.73" height="72.76"/>
	</g>
	<circle class="st14" cx="184.98" cy="13.21" r="13.21"/>
	<g>
		<g>
			<g>
				<g>
					<path class="st1" d="M570.61,29.78h3.11l13.86,31.08h-4.53l-4.12-9.16h-13.18l-3.86,9.16h-4.55L570.61,29.78z M577.11,47.76
						l-4.99-11.19l-4.62,11.19H577.11z"/>
					<path class="st1" d="M603.19,48.63v8.65c0,0.69,0.24,1.04,0.71,1.04c0.49,0,1.25-0.36,2.28-1.08v2.46
						c-0.91,0.59-1.65,0.99-2.2,1.21c-0.55,0.21-1.13,0.32-1.74,0.32c-1.73,0-2.74-0.68-3.05-2.04c-1.71,1.33-3.53,1.99-5.46,1.99
						c-1.42,0-2.6-0.47-3.54-1.41c-0.94-0.94-1.42-2.11-1.42-3.53c0-1.28,0.46-2.43,1.38-3.44c0.92-1.01,2.23-1.81,3.93-2.4
						l5.15-1.77v-1.08c0-2.45-1.22-3.67-3.67-3.67c-2.2,0-4.34,1.14-6.42,3.41v-4.4c1.56-1.84,3.81-2.77,6.75-2.77
						c2.2,0,3.96,0.58,5.29,1.73c0.44,0.37,0.84,0.86,1.19,1.47c0.35,0.61,0.58,1.22,0.67,1.84
						C603.14,45.75,603.19,46.92,603.19,48.63z M599.23,56.83v-6.04l-2.7,1.04c-1.37,0.55-2.34,1.1-2.91,1.65
						c-0.57,0.55-0.85,1.24-0.85,2.07c0,0.84,0.27,1.53,0.81,2.06c0.54,0.53,1.23,0.8,2.09,0.8
						C596.95,58.41,598.14,57.88,599.23,56.83z"/>
				</g>
				<rect x="542.79" y="11.86" class="st0" width="72.67" height="72.69"/>
				<g>
					<path class="st3" d="M570.21,29.77l13.77,31.09h-3.49l-4.35-9.7H562.1l-4.17,9.7h-3.49l13.36-31.09H570.21z M563.41,48.12
						h11.37l-5.84-13.14L563.41,48.12z"/>
					<path class="st3" d="M600.11,46.49v11.24c0,0.63,0.18,0.91,0.63,0.91c0.41,0,1.22-0.45,2.4-1.36v2.31
						c-1.59,1.13-2.81,1.68-4.03,1.68c-1.72,0-2.08-1.18-2.08-1.95v-0.54c-2.31,1.95-3.94,2.49-5.93,2.49
						c-3.08,0-5.16-2.22-5.16-4.98c0-3.99,3.44-5.85,11.1-7.61v-1.59c0-2.85-1.18-4.08-4.03-4.08c-2.49,0-4.44,1.09-6.43,3.13v-3.35
						c1.72-1.81,3.99-2.67,6.7-2.67C597.75,40.1,600.11,42.55,600.11,46.49z M592.5,59c1.45,0,2.81-0.54,4.53-2.22v-6.34
						c-4.98,0.95-7.97,2.58-7.97,5.35C589.05,57.6,590.46,59,592.5,59z"/>
				</g>
			</g>
			<rect x="503.16" y="11.86" class="st90" width="39.63" height="72.67"/>
			<g>
				<path class="st3" d="M529.3,46.5v11.23c0,0.63,0.18,0.91,0.63,0.91c0.41,0,1.22-0.45,2.4-1.36v2.31
					c-1.59,1.13-2.81,1.68-4.03,1.68c-1.72,0-2.08-1.18-2.08-1.95v-0.54c-2.31,1.95-3.94,2.49-5.93,2.49
					c-3.08,0-5.16-2.22-5.16-4.98c0-3.99,3.44-5.84,11.1-7.61v-1.59c0-2.85-1.18-4.08-4.03-4.08c-2.49,0-4.44,1.09-6.43,3.13v-3.35
					c1.72-1.81,3.99-2.67,6.7-2.67C526.95,40.11,529.3,42.55,529.3,46.5z M521.69,59c1.45,0,2.81-0.54,4.53-2.22v-6.34
					c-4.98,0.95-7.97,2.58-7.97,5.35C518.25,57.59,519.66,59,521.69,59z"/>
			</g>
			<g>
				<path class="st1" d="M639.42,29.78l13.77,31.08h-3.49l-4.35-9.69h-14.04l-4.17,9.69h-3.49l13.36-31.08H639.42z M632.62,48.13
					h11.37l-5.84-13.14L632.62,48.13z"/>
				<path class="st1" d="M669.32,46.5v11.23c0,0.63,0.18,0.91,0.63,0.91c0.41,0,1.22-0.45,2.4-1.36v2.31
					c-1.59,1.13-2.81,1.68-4.03,1.68c-1.72,0-2.08-1.18-2.08-1.95v-0.54c-2.31,1.95-3.94,2.49-5.93,2.49
					c-3.08,0-5.16-2.22-5.16-4.98c0-3.99,3.44-5.84,11.1-7.61v-1.59c0-2.85-1.18-4.08-4.03-4.08c-2.49,0-4.44,1.09-6.43,3.13v-3.35
					c1.72-1.81,3.99-2.67,6.7-2.67C666.96,40.11,669.32,42.56,669.32,46.5z M661.71,59c1.45,0,2.81-0.54,4.53-2.22v-6.34
					c-4.98,0.95-7.97,2.58-7.97,5.35C658.27,57.6,659.67,59,661.71,59z"/>
			</g>
			<linearGradient id="SVGID_7_" gradientUnits="userSpaceOnUse" x1="542.7822" y1="76.1992" x2="615.4676" y2="76.1992">
				<stop  offset="0" style="stop-color:#FFBB1D"/>
				<stop  offset="0.4919" style="stop-color:#FFC121"/>
				<stop  offset="1" style="stop-color:#FFB71B"/>
			</linearGradient>
			<polyline style="fill:url(#SVGID_7_);" points="615.47,68.18 615.47,84.22 542.78,84.22 542.78,68.18 615.47,68.18 			"/>
			<rect x="542.79" y="11.86" class="st92" width="72.63" height="8.56"/>
		</g>
		<g>
			<g>
				<circle class="st5" cx="535.31" cy="20.42" r="13.21"/>
				<circle class="st92" cx="550.26" cy="20.42" r="13.21"/>
			</g>
		</g>
	</g>
</g>
</svg>
