<?xml version="1.0" encoding="utf-8"?>
<!-- Generator: Adobe Illustrator 21.0.0, SVG Export Plug-In . SVG Version: 6.00 Build 0)  -->
<svg version="1.1" id="Layer_1" xmlns="http://www.w3.org/2000/svg" xmlns:xlink="http://www.w3.org/1999/xlink" x="0px" y="0px"
	 viewBox="0 0 503.9 503.7" enable-background="new 0 0 503.9 503.7" xml:space="preserve">
<g>
	<path fill="#F24820" d="M169,0c55.3,0,110.7,0,166,0c1.6,0.3,3.1,0.7,4.7,0.8c16.1,1.4,32.4,1.4,48.2,4.4
		C445.4,16,482.4,49.7,497,106.9c6.3,24.8,6.4,50.2,6.6,75.4c0.4,49.5,0.3,98.9-0.4,148.4c-0.3,19.2-1.1,38.8-4.6,57.6
		c-10.7,57.4-44.5,94.1-101.5,108.7c-24.6,6.3-49.8,6.4-74.9,6.6c-52.5,0.4-104.9-0.2-157.4-0.5c-19.8-0.1-39.6-1.3-58.9-6.2
		c-42.1-10.7-73-35.1-90.8-75.1c-10-22.6-13-46.6-14-71.1C0.9,345.4,0.4,340.2,0,335c0-55.3,0-110.7,0-166c0.3-1.6,0.8-3.1,0.8-4.7
		c0.6-19.5,1.5-38.9,6.2-57.9c10.8-42.9,35.7-74.1,76.6-91.8c22.2-9.6,45.8-12.4,69.7-13.4C158.5,0.9,163.7,0.4,169,0z M251.8,458.9
		c0-0.3,0-0.5,0-0.8c21,0,42,0.4,63-0.1c19.8-0.5,39.6-1.2,59.3-3.2c19-1.9,36.5-8.6,51.2-21.5c20.3-17.7,28.8-41,30.4-66.8
		c1.8-29.9,2.3-59.9,2.6-89.8c0.4-29.1,0.2-58.3-0.4-87.5c-0.4-19.8-1.2-39.6-3.2-59.3c-1.9-19-8.6-36.5-21.5-51.2
		c-17.7-20.3-41-28.8-66.8-30.4c-29.2-1.8-58.6-2.3-87.8-2.6c-30-0.4-60-0.2-90,0.4c-19.6,0.4-39.3,1.2-58.8,3.2
		c-19,1.9-36.5,8.6-51.2,21.5c-20.3,17.7-28.8,41-30.4,66.8c-1.8,29.9-2.3,59.9-2.6,89.8c-0.4,29.1-0.4,58.3,0.4,87.5
		c0.6,21.8,1,43.7,4.3,65.2c5.7,36.6,26.8,61.5,63.2,71.4c11.9,3.2,24.6,4.9,36.9,5.4C184.2,458,218,458.2,251.8,458.9z"/>
	<path fill="#FFFFFF" d="M0,335c0.4,5.2,0.9,10.5,1.1,15.7c1,24.4,3.9,48.5,14,71.1c17.8,40,48.7,64.4,90.8,75.1
		c19.3,4.9,39.1,6.1,58.9,6.2c52.5,0.4,104.9,0.9,157.4,0.5c25.1-0.2,50.3-0.3,74.9-6.6c57-14.6,90.8-51.3,101.5-108.7
		c3.5-18.8,4.3-38.4,4.6-57.6c0.7-49.5,0.8-98.9,0.4-148.4c-0.2-25.2-0.3-50.7-6.6-75.4C482.4,49.7,445.4,16,387.8,5.2
		c-15.8-3-32.1-3-48.2-4.4c-1.6-0.1-3.1-0.5-4.7-0.8c56.7,0,113.3,0,170,0c0,168.3,0,336.6,0,504.9c-168.3,0-336.6,0-504.9,0
		C0,448.3,0,391.6,0,335z"/>
	<path fill="#FFFFFF" d="M169,0c-5.2,0.4-10.5,0.9-15.7,1.1c-23.9,1-47.5,3.8-69.7,13.4C42.7,32.2,17.8,63.4,7,106.3
		c-4.8,19-5.6,38.5-6.2,57.9c0,1.6-0.5,3.1-0.8,4.7C0,112.7,0,56.5,0,0C56.3,0,112.7,0,169,0z"/>
	<path fill="#FFFFFF" d="M251.8,458.9c-33.8-0.6-67.6-0.9-101.4-2.2c-12.4-0.5-25-2.1-36.9-5.4C77.2,441.5,56,416.6,50.3,380
		c-3.3-21.4-3.8-43.4-4.3-65.2c-0.8-29.1-0.7-58.3-0.4-87.5c0.4-30,0.8-60,2.6-89.8c1.6-25.8,10.1-49.1,30.4-66.8
		c14.7-12.9,32.2-19.6,51.2-21.5c19.5-2,39.2-2.8,58.8-3.2c30-0.6,60-0.7,90-0.4c29.3,0.4,58.6,0.8,87.8,2.6
		c25.8,1.6,49.1,10.2,66.8,30.4c12.9,14.7,19.6,32.2,21.5,51.2c2,19.7,2.8,39.5,3.2,59.3c0.6,29.1,0.7,58.3,0.4,87.5
		c-0.4,30-0.8,60-2.6,89.8c-1.6,25.8-10.2,49.1-30.4,66.8c-14.7,12.9-32.2,19.6-51.2,21.5c-19.7,2-39.5,2.7-59.3,3.2
		c-21,0.5-42,0.1-63,0.1C251.8,458.4,251.8,458.6,251.8,458.9z M381.5,252.2c0.1-71.5-57.7-129.6-129-129.7
		c-71.8-0.2-129.9,57.6-130,129.3c-0.1,71.5,57.7,129.6,129,129.7C323.3,381.6,381.4,323.8,381.5,252.2z M386.6,87.2
		c-16.8,0-30.6,13.6-30.6,30.3c0,16.5,13.5,30.2,30,30.4c16.8,0.2,30.7-13.4,30.7-30.1C416.9,100.8,403.4,87.2,386.6,87.2z"/>
	<path fill="#F24820" d="M381.5,252.2c-0.1,71.6-58.2,129.4-130,129.3c-71.3-0.1-129.1-58.2-129-129.7
		c0.1-71.6,58.2-129.4,130-129.3C323.8,122.6,381.5,180.7,381.5,252.2z M335.8,252.2c0-45.9-37.5-84-82.8-84
		c-47-0.1-84.9,37.2-84.9,83.4c0,46.5,37.4,84.2,83.5,84.3C298.1,335.8,335.8,298.3,335.8,252.2z"/>
	<path fill="#F24820" d="M386.6,87.2c16.8,0,30.3,13.7,30.2,30.6c-0.1,16.8-13.9,30.3-30.7,30.1c-16.5-0.2-30-13.9-30-30.4
		C356,100.8,369.7,87.1,386.6,87.2z"/>
	<path fill="#FFFFFF" d="M335.8,252.2c0,46.2-37.7,83.6-84.1,83.6c-46.1,0-83.5-37.8-83.5-84.3c0-46.2,37.9-83.4,84.9-83.4
		C298.3,168.2,335.8,206.2,335.8,252.2z"/>
</g>
</svg>
