<?xml version="1.0" encoding="utf-8"?>
<!-- Generator: Adobe Illustrator 21.0.0, SVG Export Plug-In . SVG Version: 6.00 Build 0)  -->
<svg version="1.1" id="Layer_1" xmlns="http://www.w3.org/2000/svg" xmlns:xlink="http://www.w3.org/1999/xlink" x="0px" y="0px"
	 viewBox="0 0 500 327" enable-background="new 0 0 500 327" xml:space="preserve">
<g id="mail">
	<path fill="#F24820" d="M437.6-0.2h-375c-34.5,0-62.5,28-62.5,62.5v203.1c0,34.5,28,62.5,62.5,62.5h375c34.5,0,62.5-28,62.5-62.5
		V62.3C500.1,27.8,472.1-0.2,437.6-0.2z M31.3,81.9l109.4,82l-109.4,82V81.9z M437.6,296.7h-375c-17.2,0-31.2-14-31.2-31.2
		l122.4-91.8l68.3,51.2c8.3,6.2,18.2,9.4,28.1,9.4s19.8-3.1,28.1-9.4l68.3-51.2L469,265.5C468.9,282.7,454.8,296.7,437.6,296.7z
		 M468.9,245.9l-109.4-82l109.4-82V245.9z M268.8,212.4c-5.5,4.1-11.9,6.3-18.7,6.3c-6.8,0-13.3-2.2-18.8-6.3l-64.6-48.5l-13-9.8
		L31.3,62.4l0,0c0-17.2,14-31.2,31.2-31.2h375c17.2,0,31.2,14,31.2,31.2L268.8,212.4z"/>
</g>
</svg>
